<?xml version="1.0" encoding="UTF-8" standalone="no"?><!DOCTYPE svg PUBLIC "-//W3C//DTD SVG 1.1//EN" "http://www.w3.org/Graphics/SVG/1.1/DTD/svg11.dtd"><svg width="100%" height="100%" viewBox="0 0 256 256" version="1.1" xmlns="http://www.w3.org/2000/svg" xmlns:xlink="http://www.w3.org/1999/xlink" xml:space="preserve" xmlns:serif="http://www.serif.com/" style="fill-rule:evenodd;clip-rule:evenodd;stroke-linejoin:round;stroke-miterlimit:2;"><rect id="logo" x="-430.573" y="-73.599" width="3840" height="2160" style="fill:none;"/><g id="logo1" serif:id="logo"><g><circle cx="128" cy="128" r="128" style="fill:#8ed146;"/><g><path d="M170.57,71.652c28.897,6.509 46.436,19.44 56.242,34.494c15.431,0.328 22.983,9.891 23.705,20.965c1.214,10.786 -6.435,20.812 -14.932,25.547c-9.584,26.118 -56.719,54.897 -113.426,58.047c-42.584,2.366 -68.056,-7.624 -80.973,-24.472c-14.587,-1.281 -27.673,-7.503 -30.341,-20.8c-2.539,-12.653 9.711,-28.675 24.385,-37.398c5.347,-13.022 14.553,-22.915 24.014,-27.933c-8.659,-13.607 -15.723,-43.309 1.237,-53.189c25.829,-15.048 66.796,-7.422 110.089,24.739Z" style="fill:#18182e;"/><path d="M92.085,114.254c22.259,-18.117 42.903,-3.708 67.414,-6.781c24.511,-3.073 35.685,-18.784 53.406,-5.055c13.281,10.289 18.779,42.929 3.912,55.417c-13.765,11.563 -33.695,-4.223 -78.287,15.482c-49.337,21.801 -68.705,-40.946 -46.445,-59.063Z" style="fill:#fff;fill-rule:nonzero;"/><path d="M47.344,134.992c8.094,-2.319 16.932,3.711 19.723,13.456c2.792,9.745 -1.514,19.539 -9.608,21.858c-8.094,2.318 -16.932,-3.711 -19.723,-13.456c-2.792,-9.746 1.514,-19.54 9.608,-21.858Z" style="fill:#fff;"/><path d="M237.315,140.196c3.482,-2.539 5.658,-7.263 5.316,-12.515c-0.462,-7.074 -5.327,-12.603 -11.136,-12.962c3.75,8.333 5.509,17.039 5.82,25.477Z" style="fill:#fff;fill-rule:nonzero;"/></g></g></g></svg>