<?xml version="1.0" encoding="UTF-8" standalone="no"?><!DOCTYPE svg PUBLIC "-//W3C//DTD SVG 1.1//EN" "http://www.w3.org/Graphics/SVG/1.1/DTD/svg11.dtd"><svg width="100%" height="100%" viewBox="0 0 2048 533" version="1.1" xmlns="http://www.w3.org/2000/svg" xmlns:xlink="http://www.w3.org/1999/xlink" xml:space="preserve" xmlns:serif="http://www.serif.com/" style="fill-rule:evenodd;clip-rule:evenodd;stroke-linejoin:round;stroke-miterlimit:2;"><g><g><path d="M772.335,206.874c-30.432,-46.725 -84.864,-86.86 -174.551,-107.062c-134.356,-99.807 -261.491,-123.473 -341.647,-76.775c-52.635,30.664 -30.709,122.839 -3.838,165.065c-29.362,15.577 -57.933,46.277 -74.525,86.691c-45.533,27.07 -83.544,76.789 -75.665,116.05c8.279,41.261 48.88,60.57 94.144,64.55c40.084,52.289 119.133,83.296 251.293,75.954c175.972,-9.776 322.242,-99.076 351.998,-180.126c26.37,-14.693 50.112,-45.81 46.344,-79.283c-2.241,-34.365 -25.674,-64.041 -73.553,-65.064Z" style="fill:#1b1d1c;"/><path d="M814.026,274.738c0.422,13.103 -5.202,24.7 -13.812,30.758c-0.098,-21.029 -3.674,-42.837 -12.089,-63.863c14.006,1.33 25.335,15.461 25.901,33.105Z" style="fill:#fff;"/><path d="M276.571,338.14c8.668,30.263 -4.682,60.634 -29.817,67.834c-25.136,7.2 -52.54,-11.498 -61.211,-41.761c-8.668,-30.263 4.682,-60.632 29.817,-67.832c25.138,-7.202 52.542,11.496 61.211,41.759Z" style="fill:#fff;"/><path d="M486.24,207.567c-44.969,-6.082 -87.454,-11.828 -132.025,24.45c-69.08,56.225 -8.972,250.951 144.137,183.294c78.627,-34.743 132.547,-33.933 172.287,-33.336c30.206,0.453 52.221,0.785 70.667,-14.71c46.137,-38.755 29.076,-140.049 -12.14,-171.98c-35.347,-27.384 -62.3,-17.027 -97.245,-3.597c-19.423,7.464 -41.318,15.877 -68.493,19.285c-26.986,3.383 -52.464,-0.063 -77.188,-3.406Z" style="fill:#fff;"/><path d="M124.75,459.78c-151.852,24.941 -162.638,-9.566 -45.634,-112.447c-32.857,35.835 -13.386,102.561 45.634,112.447Z" style="fill:#1b1d1c;fill-rule:nonzero;"/></g><g><path d="M1120.91,242.591l-56.253,3.463c-0.961,-4.808 -3.029,-9.135 -6.202,-12.982c-3.172,-3.942 -7.356,-7.068 -12.547,-9.375c-5.097,-2.404 -11.203,-3.606 -18.318,-3.606c-9.521,-0 -17.55,2.02 -24.089,6.057c-6.539,3.944 -9.807,9.233 -9.807,15.867c-0,5.289 2.116,9.76 6.346,13.414c4.232,3.654 11.491,6.587 21.78,8.799l40.098,8.076c21.54,4.425 37.597,11.54 48.175,21.348c10.578,9.808 15.865,22.692 15.865,38.654c-0,14.522 -4.279,27.262 -12.836,38.224c-8.462,10.961 -20.097,19.52 -34.906,25.674c-14.711,6.057 -31.684,9.086 -50.916,9.086c-29.327,0 -52.694,-6.104 -70.099,-18.317c-17.307,-12.309 -27.453,-29.04 -30.433,-50.195l60.434,-3.173c1.828,8.942 6.251,15.771 13.27,20.482c7.02,4.615 16.011,6.924 26.972,6.924c10.771,-0 19.425,-2.068 25.964,-6.202c6.634,-4.232 10,-9.665 10.097,-16.299c-0.097,-5.577 -2.453,-10.146 -7.068,-13.704c-4.616,-3.654 -11.732,-6.441 -21.347,-8.365l-38.367,-7.644c-21.637,-4.327 -37.743,-11.827 -48.321,-22.501c-10.48,-10.673 -15.72,-24.28 -15.72,-40.82c-0,-14.231 3.846,-26.491 11.539,-36.779c7.788,-10.29 18.703,-18.222 32.742,-23.799c14.134,-5.577 30.673,-8.367 49.617,-8.367c27.982,0 50.002,5.914 66.06,17.742c16.155,11.827 25.578,27.933 28.27,48.318Z" style="fill:#1b1d1c;fill-rule:nonzero;"/><path d="M1352.88,254.106l-52.851,20.203l-0.991,-2.834c-7.242,-20.675 -25.926,-33.52 -48.744,-33.52c-29.336,0 -51.716,21.968 -51.716,53.115c0,31.148 22.38,53.116 51.716,53.116c23.799,-0 42.412,-14.14 47.996,-35.746l0.762,-2.946l55.057,16.669l-0.755,2.742c-12.531,45.548 -53.073,76.278 -104.41,76.278c-62.079,0 -110.453,-46.135 -110.453,-109.39l0,-0.095c0,-62.91 48.319,-109.39 110.453,-109.39c48.516,0 87.529,27.502 102.933,69.089l1.003,2.709Z" style="fill:#1b1d1c;"/><path d="M1675.88,202.136l0.02,-15.615l56.977,-0.014l0,210.429l-56.997,0l-0,-15.559c-14.034,12.348 -32.714,19.709 -56.59,19.709c-60.103,0 -106.639,-46.235 -106.639,-109.388c0,-63.153 46.486,-109.39 106.639,-109.39c21.873,0 41.325,6.674 56.59,19.828Zm1.4,88.548c0,-31.148 -22.379,-53.453 -52.392,-53.453c-29.989,0 -52.054,22.282 -52.054,53.453c-0,31.17 22.787,53.792 52.054,53.792c29.302,-0 52.392,-22.32 52.392,-53.792Z" style="fill:#1b1d1c;"/><path d="M2048,396.936l-60.127,0l-0,-126.088c-0,-10.876 -2.691,-19.283 -7.273,-24.914c-4.53,-5.554 -11.144,-8.703 -19.736,-8.703c-8.609,0 -15.413,3.158 -20.1,8.74c-4.756,5.639 -7.585,14.041 -7.585,24.877l-0,126.088l-60.127,0l-0,-126.088c-0,-10.856 -2.76,-19.172 -7.377,-24.721c-4.565,-5.483 -11.179,-8.559 -19.632,-8.559c-9.026,-0 -15.917,3.11 -20.586,8.587c-4.721,5.539 -7.481,13.836 -7.481,24.693l-0,126.088l-59.798,0l0,-126.812c0,-26.323 7.829,-48.346 22.913,-63.8c15.101,-15.464 37.145,-24.016 64.9,-24.016c23.954,0 43.134,8.467 57.437,23.042c14.268,-14.533 33.483,-23.042 57.436,-23.042c27.564,0 49.452,8.556 64.415,24.025c14.962,15.455 22.721,37.475 22.721,63.791l0,126.812Z" style="fill:#1b1d1c;"/><path d="M1369.81,397.531l-0,-126.812c-0,-26.323 7.83,-48.347 22.917,-63.8c15.1,-15.464 37.142,-24.016 64.899,-24.016l48.463,-0l-0,55.26l-48.463,-0c-9.026,-0 -15.898,3.11 -20.56,8.579c-4.714,5.532 -7.459,13.819 -7.459,24.652l0,126.137l-59.797,-0Z" style="fill:#1b1d1c;"/></g></g></svg>